<svg xmlns="http://www.w3.org/2000/svg" width="155.833" height="56.466" viewBox="0 0 155.833 56.466"><g id="Group_28" data-name="Group 28" transform="translate(-103.008 -69.599)"><path id="Path_63" data-name="Path 63" d="M108.566,102.195a4.346,4.346,0,0,1,1.961-1.141,4.7,4.7,0,0,1,2.231-.06,4.383,4.383,0,0,1,2.03,1.05l4.839,4.328a2.123,2.123,0,0,1,.73,1.508,2.1,2.1,0,0,1-.557,1.592,2.106,2.106,0,0,1,1.519-.731,2.13,2.13,0,0,1,1.579.558l4.84,4.329a4.423,4.423,0,0,1,1.274,1.908,4.6,4.6,0,0,1,.189,2.223,4.413,4.413,0,0,1-.923,2.071l-.183.231-1.758,1.966-.714.8-2.767,3.093a.421.421,0,0,1-.305.146.45.45,0,0,1-.334-.124l-9.526-8.522-9.527-8.523a.472.472,0,0,1-.154-.311.419.419,0,0,1,.107-.326l2.767-3.093.713-.8,1.758-1.966Zm7.3,6.973-3.479-3.111a.864.864,0,0,0-.6-.2.832.832,0,0,0-.56.253l-1.193,1.335-.714.8,4.73,4.232,1.879-2.13a.86.86,0,0,0,.2-.593.837.837,0,0,0-.26-.58m8.165,7.3-3.492-3.123a.925.925,0,0,0-.631-.179.828.828,0,0,0-.577.287l-1.858,2.076,4.73,4.23.712-.8,1.218-1.361a.984.984,0,0,0,.151-.583.827.827,0,0,0-.253-.549" fill="#fff"></path><path id="Path_64" data-name="Path 64" d="M139.065,110.178a.521.521,0,0,1-.3.076.388.388,0,0,1-.271-.13l-2.63-2.822-2.492,1.873,1.994,3.325a.5.5,0,0,1,.031.287.472.472,0,0,1-.149.264l-3.213,2.415a.442.442,0,0,1-.334.032.478.478,0,0,1-.272-.224L118.786,92.819l-.019-.054a.405.405,0,0,1-.046-.277.491.491,0,0,1,.149-.264l1.032-.775,2.668-2.006,1.033-.777a.481.481,0,0,1,.534.037l18.136,18.439a.427.427,0,0,1,.121.313.492.492,0,0,1-.13.318Zm-8.082-4.976,1.724-1.3-6.977-7.467Z" fill="#fff"></path><path id="Path_65" data-name="Path 65" d="M148.05,87.77a4.473,4.473,0,0,1,.458,1.879,4.581,4.581,0,0,1-.342,1.834,4.675,4.675,0,0,1-1.035,1.545L154.4,100.9a.438.438,0,0,1,.058.331.5.5,0,0,1-.19.287l-3.686,1.782a.515.515,0,0,1-.294.009.473.473,0,0,1-.257-.173l-7.066-7.79,4.369,9.032a.443.443,0,0,1-.207.593l-3.337,1.612a.424.424,0,0,1-.338.021.451.451,0,0,1-.261-.242L138.616,96.9l-.988-2.043-5.565-11.507A.457.457,0,0,1,132.04,83a.425.425,0,0,1,.237-.267l3.322-1.606a.129.129,0,0,1,.057-.009l3.587-1.735a4.412,4.412,0,0,1,2.265-.316,4.738,4.738,0,0,1,2.085.795,4.372,4.372,0,0,1,1.478,1.744ZM138,85.089l2.94,6.076,2.258-1.092a.916.916,0,0,0,.335-1.084l-2.216-4.582a.952.952,0,0,0-.485-.412.822.822,0,0,0-.622.026Z" fill="#fff"></path><path id="Path_66" data-name="Path 66" d="M157.092,72.911a4.376,4.376,0,0,1,2.265.125,4.713,4.713,0,0,1,1.9,1.178,4.373,4.373,0,0,1,1.12,1.993l1.662,6.276a2.186,2.186,0,0,1-1.56,2.683,2.189,2.189,0,0,1,2.683,1.56L166.821,93a4.435,4.435,0,0,1,.016,2.295,4.646,4.646,0,0,1-1.064,1.961,4.421,4.421,0,0,1-1.909,1.221l-.281.093-2.55.675L160,99.522l-4.013,1.063a.431.431,0,0,1-.336-.046.447.447,0,0,1-.209-.286L152.17,87.9,148.9,75.54a.455.455,0,0,1,.042-.344.413.413,0,0,1,.269-.216l4.011-1.06,1.035-.274,2.548-.676Zm2.262,9.839-1.2-4.511a.851.851,0,0,0-.39-.5.822.822,0,0,0-.606-.1l-1.73.457-1.035.274,1.625,6.133,2.74-.744a.871.871,0,0,0,.49-.387.849.849,0,0,0,.1-.628m2.8,10.59-1.2-4.528a.932.932,0,0,0-.428-.5.834.834,0,0,0-.641-.08l-2.692.714,1.625,6.133,1.033-.274,1.765-.468a.978.978,0,0,0,.447-.4.829.829,0,0,0,.09-.6" fill="#fff"></path><path id="Path_67" data-name="Path 67" d="M179.86,91.618a.42.42,0,0,1,.322.105.433.433,0,0,1,.153.3l.271,3.678-.036,0a.441.441,0,0,1-.427.493l-10.484.775a.42.42,0,0,1-.322-.1.454.454,0,0,1-.154-.321L167.3,71.056a.464.464,0,0,1,.1-.333.411.411,0,0,1,.3-.16l10.486-.776a.428.428,0,0,1,.322.107.5.5,0,0,1,.17.3l.274,3.716a.474.474,0,0,1-.408.473l-6.365.47.468,6.328,6.346-.47a.447.447,0,0,1,.322.1.49.49,0,0,1,.171.312l.273,3.7a.476.476,0,0,1-.409.473l-6.364.471.468,6.328Z" fill="#fff"></path><path id="Path_68" data-name="Path 68" d="M195.849,82.21a4.467,4.467,0,0,1-.6,1.837,4.614,4.614,0,0,1-1.26,1.376,4.672,4.672,0,0,1-1.695.766L194.3,96.717a.431.431,0,0,1-.126.31.48.48,0,0,1-.313.144l-4.07-.433a.506.506,0,0,1-.253-.149.477.477,0,0,1-.129-.283l-1.885-10.347-1.061,9.978a.439.439,0,0,1-.487.393l-3.687-.391a.427.427,0,0,1-.3-.162.448.448,0,0,1-.093-.345l1.112-10.454.241-2.255,1.354-12.71a.464.464,0,0,1,.162-.308.446.446,0,0,1,.345-.1l3.669.391a.147.147,0,0,1,.052.025l3.962.421a4.41,4.41,0,0,1,2.091.928,4.731,4.731,0,0,1,1.349,1.775,4.371,4.371,0,0,1,.335,2.263Zm-7.112-7.584-.715,6.713,2.494.264a.921.921,0,0,0,.857-.742l.54-5.063a.95.95,0,0,0-.2-.6.822.822,0,0,0-.541-.309Z" fill="#fff"></path><path id="Path_69" data-name="Path 69" d="M211.223,74.3a4.518,4.518,0,0,1,2.576,2.2,4.573,4.573,0,0,1,.342,3.393l-.033.106L213,83.617a.4.4,0,0,1-.214.252.514.514,0,0,1-.34.041L208.9,82.825a.488.488,0,0,1-.268-.226.417.417,0,0,1-.026-.326l.868-2.84a.887.887,0,0,0-.1-.64.851.851,0,0,0-.506-.395l-1.816-.555a.846.846,0,0,0-.685.06.871.871,0,0,0-.421.527l-1.079,3.529,5.482,6.921a.882.882,0,0,1,.121.172,2.855,2.855,0,0,1,.217.463,2.674,2.674,0,0,1,.15.671,2.1,2.1,0,0,1-.1.821l-1.764,5.767a4.609,4.609,0,0,1-2.186,2.514,4.446,4.446,0,0,1-3.3.342c-.024-.008-.04-.012-.052-.017l-.018,0-3.687-1.129-.016,0-.054-.017a4.548,4.548,0,0,1-2.6-2.2,4.475,4.475,0,0,1-.327-3.378l.033-.108,1.106-3.615a.453.453,0,0,1,.206-.264.405.405,0,0,1,.329-.036l3.563,1.092a.419.419,0,0,1,.263.215.429.429,0,0,1,.031.337l-.869,2.84a.908.908,0,0,0,.1.636.838.838,0,0,0,.515.4l1.817.557a.88.88,0,0,0,1.105-.587l1.078-3.529-5.5-6.927a3.739,3.739,0,0,1-.32-.629,2.527,2.527,0,0,1-.148-.68,2.086,2.086,0,0,1,.094-.812L201.907,76a4.528,4.528,0,0,1,5.471-2.879l.072.022.016,0,3.687,1.129.018,0c.012.005.028.009.052.017" fill="#fff"></path><path id="Path_70" data-name="Path 70" d="M232.69,84.347,220.6,106.875a.452.452,0,0,1-.27.231.434.434,0,0,1-.338-.035l-3.268-1.753a.431.431,0,0,1-.214-.261.421.421,0,0,1,.035-.338l4.962-9.248L218.1,93.64l-4.962,9.247a.521.521,0,0,1-.27.211.417.417,0,0,1-.346-.038l-3.251-1.744a.452.452,0,0,1-.232-.272.446.446,0,0,1,.044-.352l12.087-22.528a.472.472,0,0,1,.624-.188l3.25,1.745a.427.427,0,0,1,.216.261.5.5,0,0,1-.019.347l-4.971,9.264,3.414,1.831,4.971-9.263a.416.416,0,0,1,.262-.215.427.427,0,0,1,.337.033l3.267,1.753a.418.418,0,0,1,.211.271.457.457,0,0,1-.039.344" fill="#fff"></path><path id="Path_71" data-name="Path 71" d="M244.75,92.54a4.521,4.521,0,0,1,1.545,3.018,4.575,4.575,0,0,1-.973,3.268l-.07.086L234.3,112.278l-.069.086a4.572,4.572,0,0,1-6.265.661c-.019-.016-.034-.027-.043-.036l-.015-.012-2.981-2.442-.014-.012-.043-.036a4.571,4.571,0,0,1-1.558-2.957,4.461,4.461,0,0,1,.882-3.2l5.647-6.891,5.646-6.889a4.482,4.482,0,0,1,2.959-1.486,4.563,4.563,0,0,1,3.213.939c.009.009.024.019.043.036l.013.011,2.983,2.443.013.012c.009.009.024.019.043.036m-13.479,16.186,9.914-12.1a.894.894,0,0,0,.147-.63.848.848,0,0,0-.318-.558l-1.469-1.2a.852.852,0,0,0-.656-.2.864.864,0,0,0-.59.328l-4.91,5.991-4.922,6.005a.839.839,0,0,0-.2.636.921.921,0,0,0,.323.61l1.469,1.206a.915.915,0,0,0,.62.185.892.892,0,0,0,.591-.266" fill="#fff"></path><path id="Path_72" data-name="Path 72" d="M257.954,105.816a4.407,4.407,0,0,1,.856,2.119,4.754,4.754,0,0,1-.268,2.216,4.368,4.368,0,0,1-1.333,1.856l-5.256,4.382a4.426,4.426,0,0,1-2.075.983,4.572,4.572,0,0,1-4.166-1.354l-2.3-2.762-7.751,6.46a.424.424,0,0,1-.323.1.432.432,0,0,1-.3-.157l-2.374-2.848a.436.436,0,0,1-.1-.324.457.457,0,0,1,.174-.312l8.075-6.732,1.742-1.452,9.818-8.183a.454.454,0,0,1,.33-.108.41.41,0,0,1,.308.152l2.373,2.846a.153.153,0,0,1,.022.056Zm-8.288,6.475,3.91-3.259a.882.882,0,0,0,.293-.556.827.827,0,0,0-.175-.6l-1.571-1.882-5.185,4.322,1.607,1.925a.92.92,0,0,0,.548.227.838.838,0,0,0,.573-.177" fill="#fff"></path></g></svg>