<svg xmlns="http://www.w3.org/2000/svg" xmlns:xlink="http://www.w3.org/1999/xlink" width="189.577" height="26.364" viewBox="0 0 189.577 26.364"><defs><clipPath id="clip-path"><rect id="Rectangle_70" data-name="Rectangle 70" width="189.577" height="26.364" transform="translate(0 0)" fill="#fff"></rect></clipPath></defs><g id="Group_88" data-name="Group 88" transform="translate(0 0)" clip-path="url(#clip-path)"><path id="Path_157" data-name="Path 157" d="M188.425,0a3.313,3.313,0,0,0-.265,6.62l.135,0a3.312,3.312,0,0,0,2.43-5.559A3.289,3.289,0,0,0,188.425,0" transform="translate(-89.788 -0.001)" fill="#fff"></path><path id="Path_158" data-name="Path 158" d="M23.259,9.8A9.776,9.776,0,0,0,13.817.008C13.7,0,13.582,0,13.465,0H0V26.363H5.8V19.591h4.16l6.771,6.772h8.209l-7.582-7.581a9.82,9.82,0,0,0,5.9-8.987m-5.8,0a4,4,0,0,1-3.99,3.991l-7.66,0V5.806h7.66A4,4,0,0,1,17.455,9.8" transform="translate(0 -0.001)" fill="#fff"></path><path id="Path_159" data-name="Path 159" d="M54.524,26.362H77.783V20.557H60.328V16.082H77.783v-5.8H60.328V5.8H77.783V0H54.524Z" transform="translate(-26.465 -0.001)" fill="#fff"></path><path id="Path_160" data-name="Path 160" d="M223.459,12.532,214.852.01h-6.1V26.367h5.8V9.836l8.9,12.946,8.9-12.947V26.369h5.8V.011l-6.1,0Z" transform="translate(-101.329 -0.005)" fill="#fff"></path><path id="Path_161" data-name="Path 161" d="M271.951,26.362H295.21V20.557H277.755V16.082H295.21v-5.8H277.755V5.8H295.21V0H271.951Z" transform="translate(-132.004 -0.001)" fill="#fff"></path><path id="Path_162" data-name="Path 162" d="M340.655,0V16.531L329.3.006h-6.1V26.363H329V9.83l11.361,16.532h6.091V0Z" transform="translate(-156.88 0)" fill="#fff"></path><path id="Path_163" data-name="Path 163" d="M123.74.018H113.718l-8.877,26.348.013,0h6.109l1.572-4.666h12.389L126.5,26.37h6.122ZM114.49,15.9l3.4-10.081h1.686l3.4,10.081Z" transform="translate(-50.889 -0.009)" fill="#fff"></path><path id="Path_164" data-name="Path 164" d="M169.8,20.557V0H164v26.36H181.42V20.436Z" transform="translate(-79.603 -0.001)" fill="#fff"></path></g></svg>